<svg width="22" height="26" viewBox="0 0 22 26" fill="none" xmlns="http://www.w3.org/2000/svg">
<path d="M20.8398 1L17.2793 24.8291H7.22559L8.21484 18.207L10.7861 1H20.8398Z" stroke="#D9D9D9" stroke-width="2" stroke-linecap="round"/>
<path d="M8.33846 17.4492C7.78626 17.4492 7.33553 17.8969 7.33174 18.4493C7.32795 19.0016 7.77254 19.4494 8.32474 19.4494L8.33846 17.4492ZM17.9931 19.4494L18.993 19.4494L19.0067 17.4492L18.0069 17.4492L17.9931 19.4494ZM8.3316 18.4493L8.32474 19.4494L17.9931 19.4494L18 18.4493L18.0069 17.4492L8.33846 17.4492L8.3316 18.4493Z" fill="#D9D9D9"/>
<path d="M1 24.83H11" stroke="#D9D9D9" stroke-width="2" stroke-linecap="round"/>
<path d="M8.00008 18H19.0001L17.6875 25H6.6875L8.00008 18Z" fill="#D9D9D9"/>
</svg>
